<svg xmlns="http://www.w3.org/2000/svg" viewBox="0 0 1200 800" role="img" aria-labelledby="title description">
  <title id="title">International freight transport</title>
  <desc id="description">Cargo containers, a freight ship, and an aircraft at a port.</desc>
  <defs><linearGradient id="sky" x1="0" y1="0" x2="0" y2="1"><stop stop-color="#cee8ed"/><stop offset=".65" stop-color="#7eb8c4"/><stop offset=".65" stop-color="#2c7a88"/><stop offset="1" stop-color="#1c5865"/></linearGradient></defs>
  <rect width="1200" height="800" fill="url(#sky)"/>
  <path d="M0 585c180-28 330 15 500-10s330 18 700-18v243H0Z" fill="#266b77"/>
  <path d="M155 570h705l-78 95H250Z" fill="#173d48"/><path d="M260 532h490v40H260Z" fill="#d8e7e1"/>
  <g stroke="#1d4e57" stroke-width="5"><rect x="275" y="420" width="120" height="110" fill="#d25e4f"/><rect x="400" y="420" width="120" height="110" fill="#e0a83e"/><rect x="525" y="420" width="120" height="110" fill="#2a835b"/><rect x="650" y="420" width="85" height="110" fill="#3b7e9d"/><rect x="340" y="330" width="120" height="88" fill="#2a835b"/><rect x="465" y="330" width="120" height="88" fill="#d25e4f"/><rect x="590" y="330" width="120" height="88" fill="#e0a83e"/></g>
  <path d="M780 170c90 12 168 54 235 125l-18 11c-55-37-124-58-207-67l-104 45-26-13 98-50Z" fill="#f3f7f5"/><path d="M771 230 698 170l13-11 95 54Z" fill="#d8e5e0"/><path d="M938 273 1015 350l-16 8-98-70Z" fill="#d8e5e0"/>
  <g stroke="#f0bc48" stroke-width="14" fill="none"><path d="M95 520V185h230v335"/><path d="M60 200h300"/><path d="M160 200v210"/><path d="M230 200v210"/></g>
  <g fill="#f8d26a"><circle cx="110" cy="595" r="8"/><circle cx="145" cy="595" r="8"/><circle cx="180" cy="595" r="8"/><circle cx="215" cy="595" r="8"/></g>
</svg>
