<svg xmlns="http://www.w3.org/2000/svg" viewBox="0 0 1200 800" role="img" aria-labelledby="title description">
  <title id="title">Professional household relocation</title>
  <desc id="description">A delivery truck, moving boxes, and a modern home.</desc>
  <defs>
    <linearGradient id="sky" x1="0" y1="0" x2="1" y2="1"><stop stop-color="#dff4eb"/><stop offset="1" stop-color="#b7ddcf"/></linearGradient>
    <linearGradient id="truck" x1="0" y1="0" x2="1" y2="1"><stop stop-color="#278157"/><stop offset="1" stop-color="#124b36"/></linearGradient>
  </defs>
  <rect width="1200" height="800" fill="url(#sky)"/>
  <circle cx="1010" cy="120" r="70" fill="#f8cf68" opacity=".8"/>
  <path d="M0 560C170 470 300 520 450 470s280-70 410-10 230 15 340-35v375H0Z" fill="#78bb96"/>
  <path d="M80 555V285l145-120 145 120v270Z" fill="#f6f1e6"/>
  <path d="M55 290 225 145l170 145-22 25-148-124-148 124Z" fill="#d8614d"/>
  <rect x="155" y="375" width="75" height="180" rx="5" fill="#24684d"/>
  <rect x="275" y="355" width="62" height="62" fill="#93c8b2"/>
  <rect x="275" y="445" width="62" height="62" fill="#93c8b2"/>
  <path d="M430 475h370l70 95v95H430Z" fill="url(#truck)"/>
  <path d="M800 525h115l70 55v85H800Z" fill="#1d6548"/>
  <rect x="835" y="545" width="72" height="48" rx="6" fill="#aed9c5"/>
  <rect x="458" y="505" width="120" height="18" rx="9" fill="#f5c75f"/>
  <circle cx="540" cy="675" r="52" fill="#20302a"/><circle cx="540" cy="675" r="25" fill="#dbe8df"/>
  <circle cx="858" cy="675" r="52" fill="#20302a"/><circle cx="858" cy="675" r="25" fill="#dbe8df"/>
  <g stroke="#8a542e" stroke-width="7" fill="#dca45d"><rect x="955" y="550" width="105" height="94" rx="4"/><path d="M955 580h105M1008 550v94"/></g>
  <g stroke="#8a542e" stroke-width="7" fill="#edbd71"><rect x="1060" y="588" width="85" height="76" rx="4"/><path d="M1060 615h85M1102 588v76"/></g>
</svg>
